<svg width="20" height="24" viewBox="0 0 20 24" fill="none" xmlns="http://www.w3.org/2000/svg">
<path d="M10.2724 4.35124C9.19244 6.15428 8.94663 8.00479 9.72259 8.48449C10.4985 8.96419 12.0029 7.89236 13.0821 6.09016C14.1612 4.28795 14.4078 2.43661 13.6319 1.95691C12.8559 1.47721 11.3515 2.54904 10.2724 4.35124Z" fill="#2EB872"/>
<path d="M4.77119 8.87509C6.4919 9.68874 8.11756 9.83365 8.40926 9.19738C8.70096 8.56111 7.54481 7.38685 5.82738 6.57236C4.10995 5.75787 2.48102 5.6138 2.18932 6.25006C1.89761 6.88633 3.05376 8.06143 4.77119 8.87509" fill="#2EB872"/>
<path d="M14.6897 10.3849C12.9158 9.28728 11.0951 9.03743 10.6231 9.82611C10.1512 10.6148 11.2057 12.1438 12.9789 13.2406C14.752 14.3374 16.5735 14.5881 17.0455 13.7995C17.5174 13.0108 16.4629 11.4817 14.6897 10.3849Z" fill="#FA4659"/>
<path d="M6.21404 18.4707C6.79191 20.084 7.97658 21.3979 9.50749 22.1236C11.0384 22.8492 12.7902 22.927 14.3776 22.34C17.683 21.1174 20.645 13.7812 17.1291 13.9044C13.2722 14.0402 10.1217 10.27 9.37769 10.4524C5.9584 11.2927 5.01037 15.1112 6.21404 18.4707" fill="#FA4659"/>
<path d="M0.0555236 5.99189C0.526797 7.30308 1.33445 8.46234 2.3948 9.34957C3.45516 10.2368 4.72964 10.8197 6.0862 11.0379C5.61407 11.5902 5.22023 12.2069 4.91611 12.8701C4.23281 14.3561 4.02661 16.0229 4.3267 17.6347C4.62679 19.2464 5.41796 20.7213 6.58826 21.8509C7.75856 22.9804 9.24871 23.7072 10.8478 23.9285C12.4469 24.1498 14.074 23.8544 15.4988 23.084C16.9237 22.3136 18.074 21.1073 18.7871 19.6358C19.5003 18.1643 19.74 16.5022 19.4725 14.8845C19.205 13.2669 18.4437 11.7758 17.2964 10.6221C16.1491 9.46846 14.674 8.71074 13.0796 8.45618C13.9834 7.40231 14.5928 6.12152 14.8444 4.74709C15.0961 3.37266 14.9807 1.9548 14.5103 0.641067C14.4229 0.398455 14.2445 0.200905 14.0142 0.0916491C13.7838 -0.0176066 13.5203 -0.0296704 13.2812 0.0580982C12.3303 0.406484 11.4568 0.943171 10.7113 1.63707C9.96588 2.33098 9.3633 3.16831 8.93847 4.10057C8.63423 4.76363 8.4227 5.46666 8.31001 6.18926C7.27391 5.27282 6.01542 4.65484 4.6651 4.39944C3.31478 4.14405 1.92182 4.26054 0.630731 4.73684C0.39203 4.82565 0.197666 5.00696 0.0901715 5.24108C-0.0173227 5.4752 -0.029192 5.74306 0.0571615 5.98606L0.0555236 5.99189ZM10.2175 8.35874C10.0276 7.19207 10.1891 5.99428 10.6809 4.92257C11.1726 3.85085 11.9717 2.95527 12.9731 2.35333C13.1614 3.5198 12.9992 4.71688 12.5078 5.78823C12.0163 6.85958 11.2185 7.75541 10.2184 8.35874H10.2175ZM14.3243 10.8572C15.3787 11.356 16.26 12.1674 16.8521 13.1849C15.7049 13.3757 14.5278 13.2107 13.4742 12.7113C12.4207 12.212 11.5396 11.4016 10.946 10.3858C12.0934 10.1929 13.2714 10.3575 14.3251 10.858L14.3243 10.8572ZM6.66058 13.6896C7.17445 12.5617 8.03015 11.6307 9.10235 11.0329C9.88593 12.5472 11.1363 13.7586 12.662 14.4817C14.1876 15.2048 15.9044 15.3995 17.5494 15.0362C17.7254 15.9448 17.6872 16.8828 17.4379 17.7735C17.1885 18.6642 16.7352 19.4822 16.115 20.1606C15.4948 20.8389 14.7254 21.3584 13.8697 21.6763C13.014 21.9943 12.0963 22.1017 11.1919 21.9899C10.2875 21.878 9.42197 21.55 8.66625 21.0328C7.91053 20.5155 7.28608 19.8237 6.84403 19.014C6.40198 18.2043 6.1549 17.2996 6.12301 16.3742C6.09113 15.4487 6.27535 14.5287 6.66058 13.6896V13.6896ZM2.31866 6.30419C3.46586 6.1134 4.643 6.27842 5.69655 6.77773C6.7501 7.27703 7.63115 8.08745 8.22479 9.10327C7.07758 9.29418 5.9004 9.12921 4.84683 8.62989C3.79326 8.13058 2.91222 7.32009 2.31866 6.30419" fill="#0E1E28"/>
</svg>
