<svg width="167" height="26" viewBox="0 0 167 26" fill="none" xmlns="http://www.w3.org/2000/svg">
<path d="M10.2724 4.35121C9.19244 6.15425 8.94663 8.00476 9.72259 8.48446C10.4985 8.96416 12.0029 7.89233 13.0821 6.09013C14.1612 4.28792 14.4078 2.43658 13.6319 1.95688C12.8559 1.47718 11.3515 2.54901 10.2724 4.35121Z" fill="#2EB872"/>
<path d="M4.77119 8.87505C6.4919 9.68871 8.11756 9.83362 8.40926 9.19735C8.70096 8.56108 7.54481 7.38682 5.82738 6.57233C4.10995 5.75784 2.48102 5.61377 2.18932 6.25003C1.89761 6.8863 3.05376 8.0614 4.77119 8.87505" fill="#2EB872"/>
<path d="M14.6897 10.3849C12.9158 9.28725 11.0951 9.0374 10.6231 9.82608C10.1512 10.6147 11.2057 12.1438 12.9789 13.2406C14.752 14.3374 16.5735 14.5881 17.0455 13.7994C17.5174 13.0107 16.4629 11.4817 14.6897 10.3849Z" fill="#FA4659"/>
<path d="M6.21404 18.4708C6.79191 20.084 7.97658 21.398 9.50749 22.1236C11.0384 22.8492 12.7902 22.927 14.3776 22.34C17.683 21.1174 20.645 13.7812 17.1291 13.9045C13.2722 14.0402 10.1217 10.2701 9.37769 10.4525C5.9584 11.2928 5.01037 15.1112 6.21404 18.4708" fill="#FA4659"/>
<path d="M0.0555236 5.99189C0.526797 7.30308 1.33445 8.46234 2.3948 9.34957C3.45516 10.2368 4.72964 10.8197 6.0862 11.0379C5.61407 11.5902 5.22023 12.2069 4.91611 12.8701C4.23281 14.3561 4.02661 16.0229 4.3267 17.6347C4.62679 19.2464 5.41796 20.7213 6.58826 21.8509C7.75856 22.9804 9.24871 23.7072 10.8478 23.9285C12.4469 24.1498 14.074 23.8544 15.4988 23.084C16.9237 22.3136 18.074 21.1073 18.7871 19.6358C19.5003 18.1643 19.74 16.5022 19.4725 14.8845C19.205 13.2669 18.4437 11.7758 17.2964 10.6221C16.1491 9.46846 14.674 8.71074 13.0796 8.45618C13.9834 7.40231 14.5928 6.12152 14.8444 4.74709C15.0961 3.37266 14.9807 1.9548 14.5103 0.641067C14.4229 0.398455 14.2445 0.200905 14.0142 0.0916491C13.7838 -0.0176066 13.5203 -0.0296704 13.2812 0.0580982C12.3303 0.406484 11.4568 0.943171 10.7113 1.63707C9.96588 2.33098 9.3633 3.16831 8.93847 4.10057C8.63423 4.76363 8.4227 5.46666 8.31001 6.18926C7.27391 5.27282 6.01542 4.65484 4.6651 4.39944C3.31478 4.14405 1.92182 4.26054 0.630731 4.73684C0.39203 4.82565 0.197666 5.00696 0.0901715 5.24108C-0.0173227 5.4752 -0.029192 5.74306 0.0571615 5.98606L0.0555236 5.99189ZM10.2175 8.35874C10.0276 7.19207 10.1891 5.99428 10.6809 4.92257C11.1726 3.85085 11.9717 2.95527 12.9731 2.35333C13.1614 3.5198 12.9992 4.71688 12.5078 5.78823C12.0163 6.85958 11.2185 7.75541 10.2184 8.35874H10.2175ZM14.3243 10.8572C15.3787 11.356 16.26 12.1674 16.8521 13.1849C15.7049 13.3757 14.5278 13.2107 13.4742 12.7113C12.4207 12.212 11.5396 11.4016 10.946 10.3858C12.0934 10.1929 13.2714 10.3575 14.3251 10.858L14.3243 10.8572ZM6.66058 13.6896C7.17445 12.5617 8.03015 11.6307 9.10235 11.0329C9.88593 12.5472 11.1363 13.7586 12.662 14.4817C14.1876 15.2048 15.9044 15.3995 17.5494 15.0362C17.7254 15.9448 17.6872 16.8828 17.4379 17.7735C17.1885 18.6642 16.7352 19.4822 16.115 20.1606C15.4948 20.8389 14.7254 21.3584 13.8697 21.6763C13.014 21.9943 12.0963 22.1017 11.1919 21.9899C10.2875 21.878 9.42197 21.55 8.66625 21.0328C7.91053 20.5155 7.28608 19.8237 6.84403 19.014C6.40198 18.2043 6.1549 17.2996 6.12301 16.3742C6.09113 15.4487 6.27535 14.5287 6.66058 13.6896V13.6896ZM2.31866 6.30419C3.46586 6.1134 4.643 6.27842 5.69655 6.77773C6.7501 7.27703 7.63115 8.08745 8.22479 9.10327C7.07758 9.29418 5.9004 9.12921 4.84683 8.62989C3.79326 8.13058 2.91222 7.32009 2.31866 6.30419" fill="#0E1E28"/>
<path d="M38.686 16.298C38.686 16.802 38.56 17.2687 38.308 17.698C38.056 18.118 37.6827 18.4587 37.188 18.72C36.6933 18.972 36.0913 19.098 35.382 19.098C34.682 19.098 34.0567 18.9813 33.506 18.748C32.9553 18.5053 32.512 18.16 32.176 17.712C31.8493 17.264 31.6627 16.7413 31.616 16.144H33.716C33.7627 16.5453 33.9213 16.8813 34.192 17.152C34.472 17.4133 34.8407 17.544 35.298 17.544C35.7087 17.544 36.0213 17.4367 36.236 17.222C36.46 16.998 36.572 16.7133 36.572 16.368C36.572 16.06 36.4833 15.808 36.306 15.612C36.1287 15.4067 35.9047 15.2433 35.634 15.122C35.3633 15.0007 34.99 14.8607 34.514 14.702C33.898 14.4967 33.394 14.296 33.002 14.1C32.61 13.8947 32.274 13.6007 31.994 13.218C31.7233 12.8353 31.588 12.336 31.588 11.72C31.588 10.8707 31.8913 10.2033 32.498 9.718C33.114 9.22333 33.926 8.976 34.934 8.976C35.9793 8.976 36.81 9.228 37.426 9.732C38.0513 10.236 38.406 10.908 38.49 11.748H36.362C36.306 11.3933 36.1567 11.104 35.914 10.88C35.6713 10.6467 35.34 10.53 34.92 10.53C34.556 10.53 34.262 10.628 34.038 10.824C33.814 11.0107 33.702 11.286 33.702 11.65C33.702 11.9393 33.786 12.182 33.954 12.378C34.1313 12.5647 34.3507 12.7187 34.612 12.84C34.8827 12.9613 35.2467 13.0967 35.704 13.246C36.3387 13.47 36.852 13.68 37.244 13.876C37.6453 14.072 37.986 14.366 38.266 14.758C38.546 15.15 38.686 15.6633 38.686 16.298ZM44.7601 11.132C45.6561 11.132 46.3701 11.426 46.9021 12.014C47.4341 12.602 47.7001 13.428 47.7001 14.492V19H45.7401V14.716C45.7401 14.1 45.5815 13.624 45.2641 13.288C44.9468 12.9427 44.5128 12.77 43.9621 12.77C43.4021 12.77 42.9541 12.952 42.6181 13.316C42.2821 13.68 42.1141 14.2027 42.1141 14.884V19H40.1401V8.64H42.1141V12.798C42.3195 12.2753 42.6555 11.8693 43.1221 11.58C43.5981 11.2813 44.1441 11.132 44.7601 11.132ZM52.475 11.146C53.1283 11.146 53.6883 11.3 54.155 11.608C54.6217 11.916 54.953 12.3313 55.149 12.854V11.244H57.109V19H55.149V17.376C54.953 17.8987 54.6217 18.3187 54.155 18.636C53.6883 18.944 53.1283 19.098 52.475 19.098C51.8217 19.098 51.2337 18.9393 50.711 18.622C50.1883 18.3047 49.7777 17.8473 49.479 17.25C49.1897 16.6433 49.045 15.934 49.045 15.122C49.045 14.31 49.1897 13.6053 49.479 13.008C49.7777 12.4013 50.1883 11.9393 50.711 11.622C51.2337 11.3047 51.8217 11.146 52.475 11.146ZM53.091 12.868C52.475 12.868 51.9803 13.0687 51.607 13.47C51.2337 13.8713 51.047 14.422 51.047 15.122C51.047 15.822 51.2337 16.3727 51.607 16.774C51.9803 17.166 52.475 17.362 53.091 17.362C53.6883 17.362 54.1783 17.1613 54.561 16.76C54.953 16.3493 55.149 15.8033 55.149 15.122C55.149 14.4313 54.953 13.8853 54.561 13.484C54.1783 13.0733 53.6883 12.868 53.091 12.868ZM63.532 11.146C64.1853 11.146 64.7733 11.3047 65.296 11.622C65.8186 11.9393 66.2246 12.4013 66.514 13.008C66.8126 13.6053 66.962 14.31 66.962 15.122C66.962 15.934 66.8126 16.6433 66.514 17.25C66.2246 17.8473 65.8186 18.3047 65.296 18.622C64.7733 18.9393 64.1853 19.098 63.532 19.098C62.8786 19.098 62.3186 18.944 61.852 18.636C61.3946 18.3187 61.068 17.8987 60.872 17.376V22.696H58.898V11.244H60.872V12.854C61.068 12.3313 61.3946 11.916 61.852 11.608C62.3186 11.3 62.8786 11.146 63.532 11.146ZM62.916 12.868C62.3186 12.868 61.824 13.0733 61.432 13.484C61.0493 13.8853 60.858 14.4313 60.858 15.122C60.858 15.8033 61.0493 16.3493 61.432 16.76C61.824 17.1613 62.3186 17.362 62.916 17.362C63.532 17.362 64.0266 17.166 64.4 16.774C64.7733 16.3727 64.96 15.822 64.96 15.122C64.96 14.422 64.7733 13.8713 64.4 13.47C64.0266 13.0687 63.532 12.868 62.916 12.868ZM70.3329 8.64V19H68.3589V8.64H70.3329ZM71.8947 9.018C71.8947 8.70067 72.0067 8.444 72.2307 8.248C72.4547 8.04267 72.7487 7.94 73.1127 7.94C73.4767 7.94 73.7707 8.04267 73.9947 8.248C74.2187 8.444 74.3307 8.70067 74.3307 9.018C74.3307 9.326 74.2187 9.58267 73.9947 9.788C73.7707 9.984 73.4767 10.082 73.1127 10.082C72.7487 10.082 72.4547 9.984 72.2307 9.788C72.0067 9.58267 71.8947 9.326 71.8947 9.018ZM74.0927 11.244V19H72.1187V11.244H74.0927ZM78.5524 11.146C79.4951 11.146 80.2511 11.384 80.8204 11.86C81.3898 12.336 81.7444 12.9707 81.8844 13.764H80.0364C79.9618 13.3907 79.7938 13.092 79.5324 12.868C79.2711 12.644 78.9304 12.532 78.5104 12.532C78.1744 12.532 77.9131 12.6113 77.7264 12.77C77.5398 12.9287 77.4464 13.1433 77.4464 13.414C77.4464 13.6287 77.5211 13.8013 77.6704 13.932C77.8198 14.0627 78.0064 14.1653 78.2304 14.24C78.4544 14.3147 78.7764 14.4033 79.1964 14.506C79.7844 14.6367 80.2604 14.7767 80.6244 14.926C80.9978 15.066 81.3151 15.2947 81.5764 15.612C81.8471 15.92 81.9824 16.34 81.9824 16.872C81.9824 17.5347 81.7211 18.0713 81.1984 18.482C80.6851 18.8927 79.9898 19.098 79.1124 19.098C78.1044 19.098 77.2971 18.874 76.6904 18.426C76.0838 17.9687 75.7151 17.32 75.5844 16.48H77.4744C77.5211 16.8627 77.6891 17.166 77.9784 17.39C78.2678 17.6047 78.6458 17.712 79.1124 17.712C79.4484 17.712 79.7051 17.6327 79.8824 17.474C80.0598 17.306 80.1484 17.0913 80.1484 16.83C80.1484 16.606 80.0691 16.424 79.9104 16.284C79.7611 16.144 79.5698 16.0367 79.3364 15.962C79.1124 15.8873 78.7904 15.7987 78.3704 15.696C77.7918 15.5653 77.3204 15.4347 76.9564 15.304C76.6018 15.164 76.2938 14.9447 76.0324 14.646C75.7804 14.3473 75.6544 13.9367 75.6544 13.414C75.6544 12.742 75.9111 12.196 76.4244 11.776C76.9378 11.356 77.6471 11.146 78.5524 11.146ZM87.5966 17.306V19H86.5606C85.6926 19 85.0253 18.79 84.5586 18.37C84.1013 17.95 83.8726 17.25 83.8726 16.27V12.91H82.7946V11.244H83.8726V9.326H85.8466V11.244H87.5826V12.91H85.8466V16.298C85.8466 16.6713 85.9213 16.9327 86.0706 17.082C86.22 17.2313 86.472 17.306 86.8266 17.306H87.5966ZM98.8559 16.298C98.8559 16.802 98.7299 17.2687 98.4779 17.698C98.2259 18.118 97.8526 18.4587 97.3579 18.72C96.8633 18.972 96.2613 19.098 95.5519 19.098C94.8519 19.098 94.2266 18.9813 93.6759 18.748C93.1253 18.5053 92.6819 18.16 92.3459 17.712C92.0193 17.264 91.8326 16.7413 91.7859 16.144H93.8859C93.9326 16.5453 94.0913 16.8813 94.3619 17.152C94.6419 17.4133 95.0106 17.544 95.4679 17.544C95.8786 17.544 96.1913 17.4367 96.4059 17.222C96.6299 16.998 96.7419 16.7133 96.7419 16.368C96.7419 16.06 96.6533 15.808 96.4759 15.612C96.2986 15.4067 96.0746 15.2433 95.8039 15.122C95.5333 15.0007 95.1599 14.8607 94.6839 14.702C94.0679 14.4967 93.5639 14.296 93.1719 14.1C92.7799 13.8947 92.4439 13.6007 92.1639 13.218C91.8933 12.8353 91.7579 12.336 91.7579 11.72C91.7579 10.8707 92.0613 10.2033 92.6679 9.718C93.2839 9.22333 94.0959 8.976 95.1039 8.976C96.1493 8.976 96.9799 9.228 97.5959 9.732C98.2213 10.236 98.5759 10.908 98.6599 11.748H96.5319C96.4759 11.3933 96.3266 11.104 96.0839 10.88C95.8413 10.6467 95.5099 10.53 95.0899 10.53C94.7259 10.53 94.4319 10.628 94.2079 10.824C93.9839 11.0107 93.8719 11.286 93.8719 11.65C93.8719 11.9393 93.9559 12.182 94.1239 12.378C94.3013 12.5647 94.5206 12.7187 94.7819 12.84C95.0526 12.9613 95.4166 13.0967 95.8739 13.246C96.5086 13.47 97.0219 13.68 97.4139 13.876C97.8153 14.072 98.1559 14.366 98.4359 14.758C98.7159 15.15 98.8559 15.6633 98.8559 16.298ZM104.454 17.306V19H103.418C102.55 19 101.883 18.79 101.416 18.37C100.959 17.95 100.73 17.25 100.73 16.27V12.91H99.6521V11.244H100.73V9.326H102.704V11.244H104.44V12.91H102.704V16.298C102.704 16.6713 102.779 16.9327 102.928 17.082C103.077 17.2313 103.329 17.306 103.684 17.306H104.454ZM109.459 11.146C110.215 11.146 110.891 11.3047 111.489 11.622C112.095 11.9393 112.571 12.4013 112.917 13.008C113.262 13.6053 113.435 14.31 113.435 15.122C113.435 15.934 113.262 16.6387 112.917 17.236C112.571 17.8333 112.095 18.2953 111.489 18.622C110.891 18.9393 110.215 19.098 109.459 19.098C108.703 19.098 108.021 18.9393 107.415 18.622C106.817 18.2953 106.346 17.8333 106.001 17.236C105.655 16.6387 105.483 15.934 105.483 15.122C105.483 14.31 105.655 13.6053 106.001 13.008C106.346 12.4013 106.817 11.9393 107.415 11.622C108.021 11.3047 108.703 11.146 109.459 11.146ZM109.459 12.854C108.908 12.854 108.441 13.05 108.059 13.442C107.676 13.8247 107.485 14.3847 107.485 15.122C107.485 15.8593 107.676 16.424 108.059 16.816C108.441 17.1987 108.908 17.39 109.459 17.39C110.009 17.39 110.476 17.1987 110.859 16.816C111.241 16.424 111.433 15.8593 111.433 15.122C111.433 14.3847 111.241 13.8247 110.859 13.442C110.476 13.05 110.009 12.854 109.459 12.854ZM116.804 12.728C117.093 12.2333 117.476 11.846 117.952 11.566C118.428 11.2767 118.96 11.132 119.548 11.132V13.246H118.974C117.527 13.246 116.804 13.918 116.804 15.262V19H114.83V11.244H116.804V12.728ZM127.934 14.828C127.934 15.024 127.911 15.248 127.864 15.5H122.18C122.208 16.1907 122.395 16.6993 122.74 17.026C123.085 17.3527 123.515 17.516 124.028 17.516C124.485 17.516 124.863 17.404 125.162 17.18C125.47 16.956 125.666 16.6527 125.75 16.27H127.836C127.733 16.8113 127.514 17.2967 127.178 17.726C126.842 18.1553 126.408 18.4913 125.876 18.734C125.353 18.9767 124.77 19.098 124.126 19.098C123.37 19.098 122.698 18.9393 122.11 18.622C121.522 18.2953 121.065 17.8333 120.738 17.236C120.411 16.6387 120.248 15.934 120.248 15.122C120.248 14.31 120.411 13.6053 120.738 13.008C121.065 12.4013 121.522 11.9393 122.11 11.622C122.698 11.3047 123.37 11.146 124.126 11.146C124.891 11.146 125.559 11.3047 126.128 11.622C126.707 11.9393 127.15 12.378 127.458 12.938C127.775 13.4887 127.934 14.1187 127.934 14.828ZM125.946 14.632C125.974 13.9973 125.806 13.5167 125.442 13.19C125.087 12.8633 124.649 12.7 124.126 12.7C123.594 12.7 123.146 12.8633 122.782 13.19C122.418 13.5167 122.217 13.9973 122.18 14.632H125.946ZM133.171 9.9C132.593 9.86267 132.187 9.94667 131.953 10.152C131.72 10.3573 131.603 10.7167 131.603 11.23V11.244H133.171V12.91H131.603V19H129.629V12.91H128.635V11.244H129.629V11.062C129.629 10.138 129.891 9.42867 130.413 8.934C130.945 8.43 131.729 8.178 132.765 8.178C132.943 8.178 133.078 8.18267 133.171 8.192V9.9ZM136.327 12.728C136.616 12.2333 136.999 11.846 137.475 11.566C137.951 11.2767 138.483 11.132 139.071 11.132V13.246H138.497C137.05 13.246 136.327 13.918 136.327 15.262V19H134.353V11.244H136.327V12.728ZM143.748 11.146C144.504 11.146 145.18 11.3047 145.778 11.622C146.384 11.9393 146.86 12.4013 147.206 13.008C147.551 13.6053 147.724 14.31 147.724 15.122C147.724 15.934 147.551 16.6387 147.206 17.236C146.86 17.8333 146.384 18.2953 145.778 18.622C145.18 18.9393 144.504 19.098 143.748 19.098C142.992 19.098 142.31 18.9393 141.704 18.622C141.106 18.2953 140.635 17.8333 140.29 17.236C139.944 16.6387 139.772 15.934 139.772 15.122C139.772 14.31 139.944 13.6053 140.29 13.008C140.635 12.4013 141.106 11.9393 141.704 11.622C142.31 11.3047 142.992 11.146 143.748 11.146ZM143.748 12.854C143.197 12.854 142.73 13.05 142.348 13.442C141.965 13.8247 141.774 14.3847 141.774 15.122C141.774 15.8593 141.965 16.424 142.348 16.816C142.73 17.1987 143.197 17.39 143.748 17.39C144.298 17.39 144.765 17.1987 145.148 16.816C145.53 16.424 145.722 15.8593 145.722 15.122C145.722 14.3847 145.53 13.8247 145.148 13.442C144.765 13.05 144.298 12.854 143.748 12.854ZM153.739 11.132C154.635 11.132 155.349 11.426 155.881 12.014C156.413 12.602 156.679 13.428 156.679 14.492V19H154.719V14.716C154.719 14.1 154.56 13.624 154.243 13.288C153.925 12.9427 153.491 12.77 152.941 12.77C152.381 12.77 151.933 12.952 151.597 13.316C151.261 13.68 151.093 14.2027 151.093 14.884V19H149.119V11.244H151.093V12.798C151.298 12.2753 151.634 11.8693 152.101 11.58C152.577 11.2813 153.123 11.132 153.739 11.132ZM162.56 17.306V19H161.524C160.656 19 159.988 18.79 159.522 18.37C159.064 17.95 158.836 17.25 158.836 16.27V12.91H157.758V11.244H158.836V9.326H160.81V11.244H162.546V12.91H160.81V16.298C160.81 16.6713 160.884 16.9327 161.034 17.082C161.183 17.2313 161.435 17.306 161.79 17.306H162.56Z" fill="black"/>
</svg>
